<?xml version="1.0" standalone="no"?>
<!DOCTYPE svg PUBLIC "-//W3C//DTD SVG 20010904//EN"
 "http://www.w3.org/TR/2001/REC-SVG-20010904/DTD/svg10.dtd">
<svg version="1.0" xmlns="http://www.w3.org/2000/svg"
 width="2000.000000pt" height="2000.000000pt" viewBox="0 0 2000.000000 2000.000000"
 preserveAspectRatio="xMidYMid meet">
<metadata>
Created by potrace 1.14, written by Peter Selinger 2001-2017
</metadata>
<g transform="translate(0.000000,2000.000000) scale(0.100000,-0.100000)"
fill="#000000" stroke="none">
<path d="M3950 12585 l0 -525 620 0 620 0 0 525 0 525 -620 0 -620 0 0 -525z"/>
<path d="M11350 12585 l0 -525 620 0 620 0 0 525 0 525 -620 0 -620 0 0 -525z"/>
<path d="M13890 12080 l0 -680 -375 0 -375 0 0 -420 0 -420 375 0 374 0 4
-1327 c3 -1307 3 -1330 25 -1461 91 -561 276 -767 777 -867 192 -38 330 -49
620 -48 244 0 552 14 678 29 l47 6 -2 471 c-3 414 -5 472 -18 469 -8 -2 -116
-6 -240 -9 -237 -6 -392 5 -458 33 -79 32 -144 121 -179 241 -15 52 -17 175
-21 1261 l-4 1202 461 0 461 0 0 420 0 420 -460 0 -460 0 0 680 0 680 -615 0
-615 0 0 -680z"/>
<path d="M8690 11520 c-520 -35 -942 -253 -1284 -663 l-56 -67 0 305 0 305
-590 0 -590 0 0 -2245 0 -2245 615 0 615 0 0 1239 c0 760 4 1287 10 1365 49
602 313 919 813 977 208 24 434 -7 571 -78 176 -92 281 -286 321 -590 13 -97
15 -327 15 -1514 l0 -1399 636 0 635 0 -4 1603 c-4 1729 -2 1677 -57 1910 -42
183 -132 386 -231 527 -183 259 -492 456 -830 528 -181 39 -404 55 -589 42z"/>
<path d="M3950 9155 l0 -2245 620 0 620 0 0 2245 0 2245 -620 0 -620 0 0
-2245z"/>
<path d="M11350 9155 l0 -2245 620 0 620 0 0 2245 0 2245 -620 0 -620 0 0
-2245z"/>
</g>
</svg>
